# xmcd
#
# Track frame offsets:
#	150
#	12490
#	24329
#	37111
#	51635
#	68259
#	84049
#	93182
#	103822
#	117349
#	128531
#	137369
#	148752
#	160447
#	172171
#	183673
#	197845
#	208763
#	223023
#	234830
#	250641
#	261720
#	275793
#
# Disc length: 3849 seconds
#
# Revision: 0
# Processed by: cddbd v1.5.2PL0 Copyright (c) Steve Scherf et al.
# Submitted via: EZCDAudioConverter 2.0.5.1
#
DISCID=550f0717
DTITLE=B.B. King - The Indispensable B.B. King 1949-1962 - CD 1
DYEAR=2013
DGENRE=Blues
TTITLE0=Miss Martha King
TTITLE1=Take A Swing With Me
TTITLE2=Mistreated Woman
TTITLE3=B.B. Boogie
TTITLE4=The Other Night Blues
TTITLE5=Walkin' and Cryin'
TTITLE6=My Baby's Gone
TTITLE7=Don't You Want A Man Like Me
TTITLE8=Questionnaire Blues
TTITLE9=B.B. Blues
TTITLE10=A New Way Of Driving
TTITLE11=She's Dynamite
TTITLE12=She's A Mean Woman
TTITLE13=Hard Workin' Woman
TTITLE14=Pray For You
TTITLE15=3 O'Clock Blues
TTITLE16=That Ain't The Way To Do It
TTITLE17=She Don't Move Me No More
TTITLE18=Shake It Up And Go
TTITLE19=My Own Fault, Darlin'
TTITLE20=Gotta Fing My Baby
TTITLE21=Low Down Dirty Baby
TTITLE22=Someday Somewhere
EXTD=
EXTT0=
EXTT1=
EXTT2=
EXTT3=
EXTT4=
EXTT5=
EXTT6=
EXTT7=
EXTT8=
EXTT9=
EXTT10=
EXTT11=
EXTT12=
EXTT13=
EXTT14=
EXTT15=
EXTT16=
EXTT17=
EXTT18=
EXTT19=
EXTT20=
EXTT21=
EXTT22=
PLAYORDER=
